<?xml version="1.0" encoding="UTF-8" standalone="no"?>
<svg
   xmlns:dc="http://purl.org/dc/elements/1.1/"
   xmlns:cc="http://web.resource.org/cc/"
   xmlns:rdf="http://www.w3.org/1999/02/22-rdf-syntax-ns#"
   xmlns:svg="http://www.w3.org/2000/svg"
   xmlns="http://www.w3.org/2000/svg"
   xmlns:sodipodi="http://inkscape.sourceforge.net/DTD/sodipodi-0.dtd"
   xmlns:inkscape="http://www.inkscape.org/namespaces/inkscape"
   id="svg1923"
   sodipodi:version="0.32"
   inkscape:version="0.41.1"
   width="190"
   height="120"
   version="1.0"
   sodipodi:docbase="/home/molotov/images/wikipedia/svg"
   sodipodi:docname="Bart-logo.svg">
  <metadata
     id="metadata1928">
    <rdf:RDF
       id="RDF4">
      <cc:Work
         rdf:about=""
         id="Work6">
        <dc:format
           id="format8">image/svg+xml</dc:format>
        <dc:type
           rdf:resource="http://purl.org/dc/dcmitype/StillImage"
           id="type10" />
        <dc:title
           id="title12">Bay Area Rapid Transit (BART) logo</dc:title>
        <dc:date
           id="date14">July 20, 2006</dc:date>
        <dc:creator
           id="creator16">
          <cc:Agent
             id="Agent18">
            <dc:title
               id="title20">lensovet</dc:title>
          </cc:Agent>
        </dc:creator>
        <cc:license
           rdf:resource="http://creativecommons.org/licenses/by-nc-sa/2.5/"
           id="license22" />
      </cc:Work>
      <cc:License
         rdf:about="http://creativecommons.org/licenses/by-nc-sa/2.5/"
         id="License24">
        <cc:permits
           rdf:resource="http://web.resource.org/cc/Reproduction"
           id="permits26" />
        <cc:permits
           rdf:resource="http://web.resource.org/cc/Distribution"
           id="permits28" />
        <cc:requires
           rdf:resource="http://web.resource.org/cc/Notice"
           id="requires30" />
        <cc:requires
           rdf:resource="http://web.resource.org/cc/Attribution"
           id="requires32" />
        <cc:prohibits
           rdf:resource="http://web.resource.org/cc/CommercialUse"
           id="prohibits34" />
        <cc:permits
           rdf:resource="http://web.resource.org/cc/DerivativeWorks"
           id="permits36" />
        <cc:requires
           rdf:resource="http://web.resource.org/cc/ShareAlike"
           id="requires38" />
      </cc:License>
    </rdf:RDF>
  </metadata>
  <defs
     id="defs1926" />
  <sodipodi:namedview
     inkscape:window-height="783"
     inkscape:window-width="1014"
     inkscape:pageshadow="2"
     inkscape:pageopacity="0.0"
     guidetolerance="10.0"
     gridtolerance="10.0"
     objecttolerance="10.0"
     borderopacity="1.0"
     bordercolor="#666666"
     pagecolor="#ffffff"
     id="base"
     inkscape:zoom="4.8526316"
     inkscape:cx="95.000000"
     inkscape:cy="60.000001"
     inkscape:window-x="20"
     inkscape:window-y="22"
     inkscape:current-layer="svg1923"
     width="190px"
     height="120px" />
  <path
     id="text3753"
     d="M 56.319187,5.3677216 L 66.670750,5.3677216 C 68.395996,5.3677395 69.718423,5.7949851 70.638035,6.6494598 C 71.565752,7.5039678 72.029619,8.5619094 72.029636,9.8232880 C 72.029619,10.881243 71.700029,11.788631 71.040867,12.545456 C 70.601398,13.050023 69.958495,13.448786 69.112156,13.741745 C 70.397947,14.050999 71.341957,14.584039 71.944187,15.340866 C 72.554521,16.089571 72.859696,17.033581 72.859715,18.172897 C 72.859696,19.100636 72.644039,19.934782 72.212742,20.675339 C 71.781409,21.415900 71.191404,22.001837 70.442722,22.433151 C 69.978840,22.701706 69.278971,22.897019 68.343113,23.019089 C 67.097983,23.181849 66.271975,23.263229 65.865086,23.263229 L 56.319187,23.263229 L 56.319187,5.3677216 M 61.897800,12.386765 L 64.302586,12.386765 C 65.165205,12.386775 65.763349,12.240291 66.097019,11.947311 C 66.438804,11.646216 66.609702,11.214902 66.609715,10.653366 C 66.609702,10.132546 66.438804,9.7256453 66.097019,9.4326630 C 65.763349,9.1397083 65.177412,8.9932241 64.339207,8.9932098 L 61.897800,8.9932098 L 61.897800,12.386765 M 61.897800,19.418015 L 64.717625,19.418015 C 65.669762,19.418018 66.341148,19.251189 66.731785,18.917526 C 67.122397,18.575734 67.317709,18.120005 67.317722,17.550339 C 67.317709,17.021374 67.122397,16.598197 66.731785,16.280807 C 66.349286,15.955294 65.673831,15.792534 64.705418,15.792526 L 61.897800,15.792526 L 61.897800,19.418015"
     style="font-size:25.000000;font-style:normal;font-weight:normal;fill:#000000;fill-opacity:1.0000000;stroke:none;stroke-width:1.0000000px;stroke-linecap:butt;stroke-linejoin:miter;stroke-opacity:1.0000000;font-family:Arial Black" />
  <path
     style="fill:#0083d2"
     d="M 132.46875 38.406250 C 120.13087 38.402552 115.51461 39.071225 105.68750 43.687500 C 100.10878 46.308085 97.359952 47.982548 97.187500 49.687500 L 92.281250 98.062500 L 99.093750 104.59375 L 103.78125 107.56250 C 112.05703 112.82352 120.42153 114.73138 133.25000 114.28125 C 142.92538 113.94176 145.32870 113.49218 150.65625 111.06250 C 153.73363 109.65902 156.21875 109.17944 156.21875 110.56250 L 156.40625 114.18750 L 172.15625 114.18750 L 185.90625 114.18750 L 185.71875 75.468750 L 185.71875 38.406250 L 173.21875 38.406250 L 156.21875 38.406250 L 156.21875 42.906250 C 147.08846 38.935535 143.04691 38.409421 132.46875 38.406250 z M 132.56250 53.906250 C 135.45009 53.848774 138.30334 54.493698 141.28125 55.843750 C 148.92016 59.306902 153.17329 64.760366 154.65625 72.937500 C 156.18457 81.364774 150.18985 92.069899 141.81250 95.875000 C 128.67291 101.84318 113.55984 93.436132 110.78125 78.625000 C 109.23445 70.379854 115.07249 60.154934 123.59375 56.187500 C 126.75588 54.715232 129.67491 53.963726 132.56250 53.906250 z "
     id="path1889" />
  <path
     style="fill:#000000"
     d="M 2.4687500 4.4687500 L 2.4687500 57.218750 L 2.6562500 114.18750 L 15.406250 114.18750 L 33.406250 114.18750 L 33.031250 108.93750 C 34.147723 106.00096 33.790106 109.20119 37.812500 111.28125 C 39.430450 112.11792 45.582763 113.42000 48.750000 114.18750 C 62.949731 117.62847 79.301641 114.24494 92.656250 107.06250 C 104.57402 100.65281 108.89829 89.809027 109.46875 75.312500 C 109.80454 66.779576 107.15788 64.038067 105.25000 58.968750 C 101.15692 48.093262 88.188391 40.356883 73.218750 36.843750 C 64.522804 34.802952 50.447947 35.606377 43.875000 38.093750 C 40.627147 39.322822 36.538339 41.673983 33.218750 42.687500 L 33.218750 22.562500 L 33.218750 4.4687500 L 15.968750 4.4687500 L 2.4687500 4.4687500 z M 59.656250 54.000000 C 66.532371 53.457622 73.925006 55.943850 79.593750 62.250000 C 87.406536 70.941272 83.480685 88.125767 72.656250 94.468750 C 58.318105 101.78352 42.329805 94.376306 40.093750 78.062500 C 38.191061 64.180874 48.196048 54.903964 59.656250 54.000000 z "
     id="path1885" />
  <path
     id="text1968"
     d="M 105.36482,20.309128 L 99.065994,20.309128 L 98.199295,23.263229 L 92.547440,23.263229 L 99.273514,5.3677216 L 105.30379,5.3677216 L 112.02986,23.263229 L 106.24373,23.263229 L 105.36482,20.309128 M 104.20515,16.439499 L 102.22762,10.006393 L 100.26228,16.439499 L 104.20515,16.439499"
     style="font-size:25.000000;font-style:normal;font-weight:normal;fill:#000000;fill-opacity:1.0000000;stroke:none;stroke-width:1.0000000px;stroke-linecap:butt;stroke-linejoin:miter;stroke-opacity:1.0000000;font-family:Arial Black" />
  <path
     id="text1972"
     d="M 132.38297,23.263229 L 132.38297,5.3677216 L 141.59927,5.3677216 C 143.30825,5.3677395 144.61440,5.5142237 145.51773,5.8071747 C 146.42104,6.1001606 147.14939,6.6454074 147.70279,7.4429169 C 148.25616,8.2323199 148.53285,9.1966744 148.53287,10.335983 C 148.53285,11.328834 148.32126,12.187394 147.89810,12.911667 C 147.47491,13.627822 146.89304,14.209690 146.15250,14.657272 C 145.68048,14.942111 145.03350,15.178114 144.21158,15.365280 C 144.87074,15.585014 145.35089,15.804741 145.65201,16.024460 C 145.85544,16.170951 146.14841,16.484265 146.53091,16.964401 C 146.92152,17.444550 147.18194,17.814830 147.31216,18.075241 L 149.98550,23.263229 L 143.73550,23.263229 L 140.78140,17.794479 C 140.40704,17.086478 140.07339,16.626680 139.78043,16.415085 C 139.38165,16.138399 138.92999,16.000053 138.42545,16.000046 L 137.93716,16.000046 L 137.93716,23.263229 L 132.38297,23.263229 M 137.93716,12.618698 L 140.26871,12.618698 C 140.52098,12.618709 141.00926,12.537329 141.73355,12.374557 C 142.09975,12.301326 142.39679,12.114152 142.62466,11.813034 C 142.86065,11.511939 142.97866,11.166073 142.97867,10.775436 C 142.97866,10.197650 142.79555,9.7541283 142.42935,9.4448700 C 142.06313,9.1356393 141.37547,8.9810171 140.36636,8.9810028 L 137.93716,8.9810028 L 137.93716,12.618698"
     style="font-size:25.000000;font-style:normal;font-weight:normal;fill:#000000;fill-opacity:1.0000000;stroke:none;stroke-width:1.0000000px;stroke-linecap:butt;stroke-linejoin:miter;stroke-opacity:1.0000000;font-family:Arial Black" />
  <path
     id="text1980"
     d="M 170.72096,5.3677216 L 187.53004,5.3677216 L 187.53004,9.7866669 L 181.89040,9.7866669 L 181.89040,23.263229 L 176.36061,23.263229 L 176.36061,9.7866669 L 170.72096,9.7866669 L 170.72096,5.3677216"
     style="font-size:25.000000;font-style:normal;font-weight:normal;fill:#000000;fill-opacity:1.0000000;stroke:none;stroke-width:1.0000000px;stroke-linecap:butt;stroke-linejoin:miter;stroke-opacity:1.0000000;font-family:Arial Black" />
</svg>
